<svg width="62" height="62" viewBox="0 0 62 62" fill="none" xmlns="http://www.w3.org/2000/svg">
<path d="M49.0833 42.0567V28.4167L56.8333 20.6667L46.5 10.3334L38.75 18.0834H20.6667V15.5001H28.4167V5.16675H7.75V15.5001H15.5V31.0001H7.75V41.3334H15.5V54.2501H26.5567C27.0075 55.031 27.6548 55.6803 28.4343 56.1335C29.2138 56.5867 30.0983 56.828 31 56.8334C31.9082 56.8389 32.8019 56.6048 33.5908 56.1548C34.3798 55.7049 35.0362 55.0549 35.4938 54.2704C35.9515 53.4858 36.1943 52.5945 36.1977 51.6863C36.2011 50.7781 35.9651 49.885 35.5133 49.097C35.0616 48.3091 34.4101 47.6542 33.6246 47.1982C32.839 46.7423 31.9472 46.5016 31.0389 46.5002C30.1307 46.4988 29.2381 46.7369 28.4512 47.1904C27.6643 47.6439 27.0108 48.2969 26.5567 49.0834H20.6667V41.3334H28.4167V31.0001H20.6667V23.2501H38.75L43.9167 28.4167V42.0309C42.9317 42.5996 42.1619 43.4774 41.7266 44.5282C41.2914 45.579 41.215 46.744 41.5094 47.8426C41.8037 48.9412 42.4524 49.912 43.3547 50.6044C44.2571 51.2967 45.3626 51.672 46.5 51.672C47.6374 51.672 48.7429 51.2967 49.6453 50.6044C50.5476 49.912 51.1962 48.9412 51.4906 47.8426C51.785 46.744 51.7086 45.579 51.2734 44.5282C50.8381 43.4774 50.0683 42.5996 49.0833 42.0309V42.0567ZM10.3333 12.9167V7.75008H25.8333V12.9167H10.3333ZM31 49.0834C31.5109 49.0834 32.0104 49.2349 32.4352 49.5188C32.8601 49.8026 33.1912 50.2061 33.3867 50.6782C33.5822 51.1502 33.6334 51.6696 33.5337 52.1707C33.434 52.6718 33.188 53.1322 32.8267 53.4934C32.4654 53.8547 32.0051 54.1008 31.504 54.2004C31.0029 54.3001 30.4834 54.249 30.0114 54.0534C29.5394 53.8579 29.1359 53.5268 28.852 53.102C28.5682 52.6771 28.4167 52.1777 28.4167 51.6667C28.4167 50.9816 28.6888 50.3245 29.1733 49.8401C29.6578 49.3556 30.3149 49.0834 31 49.0834ZM25.8333 33.5834V38.7501H10.3333V33.5834H25.8333ZM46.5 13.9759L53.1908 20.6667L46.5 27.3576L39.8092 20.6667L46.5 13.9759ZM46.5 49.0834C45.9891 49.0834 45.4896 48.9319 45.0648 48.648C44.6399 48.3642 44.3088 47.9607 44.1133 47.4887C43.9178 47.0166 43.8666 46.4972 43.9663 45.9961C44.066 45.495 44.312 45.0347 44.6733 44.6734C45.0346 44.3121 45.4949 44.0661 45.996 43.9664C46.4971 43.8667 47.0166 43.9179 47.4886 44.1134C47.9606 44.3089 48.3641 44.64 48.648 45.0649C48.9318 45.4897 49.0833 45.9891 49.0833 46.5001C49.0833 47.1852 48.8112 47.8423 48.3267 48.3268C47.8422 48.8112 47.1851 49.0834 46.5 49.0834Z" fill="#1A3F78"/>
<rect x="0.5" y="0.5" width="61" height="61" stroke="#1A3F78"/>
</svg>
