<svg width="62" height="62" viewBox="0 0 62 62" fill="none" xmlns="http://www.w3.org/2000/svg">
<g clip-path="url(#clip0_46_91)">
<path d="M62 38.7502V62.0002H31V38.7502H38.75V31.0002H54.25V38.7502H62ZM42.625 38.7502H50.375V34.8752H42.625V38.7502ZM58.125 50.3752H54.25V54.2502H50.375V50.3752H42.625V54.2502H38.75V50.3752H34.875V58.1252H58.125V50.3752ZM58.125 42.6252H34.875V46.5002H58.125V42.6252ZM47.3779 27.1252C46.2881 25.8941 44.9964 24.9455 43.5029 24.2795C42.0094 23.6135 40.4251 23.2704 38.75 23.2502C37.1354 23.2502 35.6318 23.5529 34.2393 24.1584C32.8467 24.7639 31.6156 25.5914 30.5459 26.6408C29.4762 27.6903 28.6387 28.9315 28.0332 30.3645C27.4277 31.7974 27.125 33.301 27.125 34.8752C27.125 36.732 26.7113 38.4778 25.8838 40.1125C25.0563 41.7473 23.8857 43.1197 22.3721 44.2297C23.2803 44.6939 24.1279 45.2287 24.915 45.8342C25.7021 46.4397 26.4388 47.1259 27.125 47.8928V58.1252C27.125 56.5308 26.8223 55.0272 26.2168 53.6145C25.6113 52.2017 24.7839 50.9706 23.7344 49.9211C22.6849 48.8716 21.4437 48.0341 20.0107 47.4084C18.5778 46.7828 17.0742 46.48 15.5 46.5002C13.8854 46.5002 12.3818 46.8029 10.9893 47.4084C9.59668 48.0139 8.36556 48.8414 7.2959 49.8908C6.22624 50.9403 5.38867 52.1815 4.7832 53.6145C4.17773 55.0474 3.875 56.551 3.875 58.1252H0C0 56.6519 0.201823 55.2291 0.605469 53.8567C1.00911 52.4843 1.58431 51.1825 2.33105 49.9514C3.0778 48.7203 3.986 47.6304 5.05566 46.6819C6.12533 45.7333 7.31608 44.9159 8.62793 44.2297C7.13444 43.1399 5.97396 41.7776 5.14648 40.1428C4.31901 38.508 3.89518 36.7522 3.875 34.8752C3.875 33.2808 4.17773 31.7772 4.7832 30.3645C5.38867 28.9517 6.21615 27.7206 7.26562 26.6711C8.3151 25.6216 9.54622 24.7841 10.959 24.1584C12.3717 23.5328 13.8854 23.23 15.5 23.2502C17.3568 23.2502 19.1025 23.6639 20.7373 24.4914C22.3721 25.3189 23.7445 26.4895 24.8545 28.0031C25.6214 26.4895 26.6003 25.1373 27.791 23.9465C28.9818 22.7557 30.3441 21.7668 31.8779 20.9797C30.3844 19.8899 29.224 18.5276 28.3965 16.8928C27.569 15.258 27.1452 13.5022 27.125 11.6252C27.125 10.0308 27.4277 8.52723 28.0332 7.11447C28.6387 5.70171 29.4661 4.47059 30.5156 3.42111C31.5651 2.37163 32.7962 1.53407 34.209 0.908417C35.6217 0.282766 37.1354 -0.0199687 38.75 0.000213623C40.3444 0.000213623 41.848 0.302948 43.2607 0.908417C44.6735 1.51389 45.9046 2.34136 46.9541 3.39084C48.0036 4.44032 48.8411 5.68153 49.4668 7.11447C50.0924 8.54741 50.3952 10.051 50.375 11.6252C50.375 13.482 49.9613 15.2278 49.1338 16.8625C48.3063 18.4973 47.1357 19.8697 45.6221 20.9797C46.9945 21.6659 48.2357 22.5237 49.3457 23.5529C50.4557 24.5822 51.3942 25.773 52.1611 27.1252H47.3779ZM15.5 42.6252C16.5697 42.6252 17.5687 42.4234 18.4971 42.0197C19.4255 41.6161 20.2529 41.0611 20.9795 40.3547C21.7061 39.6483 22.2611 38.8309 22.6445 37.9026C23.028 36.9742 23.2298 35.9651 23.25 34.8752C23.25 33.8056 23.0482 32.8065 22.6445 31.8781C22.2409 30.9498 21.6859 30.1223 20.9795 29.3957C20.2731 28.6692 19.4557 28.1141 18.5273 27.7307C17.599 27.3472 16.5898 27.1454 15.5 27.1252C14.4303 27.1252 13.4313 27.327 12.5029 27.7307C11.5745 28.1343 10.7471 28.6893 10.0205 29.3957C9.29395 30.1021 8.73893 30.9195 8.35547 31.8479C7.97201 32.7763 7.77018 33.7854 7.75 34.8752C7.75 35.9449 7.95182 36.9439 8.35547 37.8723C8.75911 38.8007 9.31413 39.6281 10.0205 40.3547C10.7269 41.0813 11.5443 41.6363 12.4727 42.0197C13.401 42.4032 14.4102 42.605 15.5 42.6252ZM31 11.6252C31 12.6949 31.2018 13.6939 31.6055 14.6223C32.0091 15.5507 32.5641 16.3781 33.2705 17.1047C33.9769 17.8313 34.7943 18.3863 35.7227 18.7697C36.651 19.1532 37.6602 19.355 38.75 19.3752C39.8197 19.3752 40.8187 19.1734 41.7471 18.7697C42.6755 18.3661 43.5029 17.8111 44.2295 17.1047C44.9561 16.3983 45.5111 15.5809 45.8945 14.6526C46.278 13.7242 46.4798 12.7151 46.5 11.6252C46.5 10.5556 46.2982 9.55653 45.8945 8.62814C45.4909 7.69976 44.9359 6.87228 44.2295 6.14572C43.5231 5.41916 42.7057 4.86415 41.7773 4.48068C40.849 4.09722 39.8398 3.8954 38.75 3.87521C37.6803 3.87521 36.6813 4.07704 35.7529 4.48068C34.8245 4.88433 33.9971 5.43934 33.2705 6.14572C32.5439 6.8521 31.9889 7.66948 31.6055 8.59787C31.222 9.52626 31.0202 10.5354 31 11.6252Z" fill="#1A3F78"/>
</g>
<defs>
<clipPath id="clip0_46_91">
<rect width="62" height="62" fill="white"/>
</clipPath>
</defs>
</svg>
