<svg width="62" height="62" viewBox="0 0 62 62" fill="none" xmlns="http://www.w3.org/2000/svg">
<path d="M25.8333 12.9167L31 7.75M20.6667 41.3333L41.3333 20.6667M31 54.25L36.1667 49.0833M42.625 49.0833C44.3379 49.0833 45.9806 48.4029 47.1917 47.1917C48.4029 45.9806 49.0833 44.3379 49.0833 42.625C49.0833 40.9121 48.4029 39.2694 47.1917 38.0583C45.9806 36.8471 44.3379 36.1667 42.625 36.1667C40.9121 36.1667 39.2694 36.8471 38.0583 38.0583C36.8471 39.2694 36.1667 40.9121 36.1667 42.625C36.1667 44.3379 36.8471 45.9806 38.0583 47.1917C39.2694 48.4029 40.9121 49.0833 42.625 49.0833ZM19.375 25.8333C21.0879 25.8333 22.7306 25.1529 23.9417 23.9417C25.1529 22.7306 25.8333 21.0879 25.8333 19.375C25.8333 17.6621 25.1529 16.0194 23.9417 14.8083C22.7306 13.5971 21.0879 12.9167 19.375 12.9167C17.6621 12.9167 16.0194 13.5971 14.8083 14.8083C13.5971 16.0194 12.9167 17.6621 12.9167 19.375C12.9167 21.0879 13.5971 22.7306 14.8083 23.9417C16.0194 25.1529 17.6621 25.8333 19.375 25.8333ZM14.2083 54.25C15.9212 54.25 17.5639 53.5696 18.7751 52.3584C19.9862 51.1472 20.6667 49.5045 20.6667 47.7917C20.6667 46.0788 19.9862 44.4361 18.7751 43.2249C17.5639 42.0138 15.9212 41.3333 14.2083 41.3333C12.4955 41.3333 10.8528 42.0138 9.6416 43.2249C8.43043 44.4361 7.75 46.0788 7.75 47.7917C7.75 49.5045 8.43043 51.1472 9.6416 52.3584C10.8528 53.5696 12.4955 54.25 14.2083 54.25ZM47.7917 20.6667C49.5045 20.6667 51.1472 19.9862 52.3584 18.7751C53.5696 17.5639 54.25 15.9212 54.25 14.2083C54.25 12.4955 53.5696 10.8528 52.3584 9.6416C51.1472 8.43043 49.5045 7.75 47.7917 7.75C46.0788 7.75 44.4361 8.43043 43.2249 9.6416C42.0138 10.8528 41.3333 12.4955 41.3333 14.2083C41.3333 15.9212 42.0138 17.5639 43.2249 18.7751C44.4361 19.9862 46.0788 20.6667 47.7917 20.6667Z" stroke="#1A3F78" stroke-width="2" stroke-linecap="round" stroke-linejoin="round"/>
<rect x="0.5" y="0.5" width="61" height="61" stroke="#1A3F78"/>
</svg>
