<svg width="28" height="28" viewBox="0 0 28 28" fill="none" xmlns="http://www.w3.org/2000/svg">
<path d="M21.413 6.56133C19.3713 4.53017 16.877 3.5 14 3.5C11.0962 3.5 8.59483 4.53133 6.56483 6.5625C4.53133 8.59367 3.5 11.0973 3.5 14C3.5 16.8758 4.53017 19.3702 6.56133 21.413C8.5925 23.4617 11.095 24.5 14 24.5C16.8782 24.5 19.3725 23.4617 21.4153 21.4165C23.4628 19.3713 24.5 16.8758 24.5 14C24.5 11.0973 23.4617 8.59367 21.413 6.56133ZM19.7657 19.7668C18.4392 21.0957 16.9237 21.8528 15.1667 22.0827V16.3333H17.5V14H15.1667V12.3667C15.1667 12.2746 15.1848 12.1835 15.2201 12.0985C15.2553 12.0135 15.307 11.9363 15.3721 11.8713C15.4372 11.8063 15.5145 11.7547 15.5996 11.7196C15.6847 11.6845 15.7758 11.6665 15.8678 11.6667H17.5V9.33333H15.8702C15.0045 9.33333 14.2823 9.65183 13.7037 10.2923C13.125 10.9305 12.8333 11.7098 12.8333 12.635V14H10.5V16.3333H12.8333V22.085C11.0577 21.8575 9.53633 21.0992 8.21683 19.7703C6.61267 18.1557 5.83333 16.268 5.83333 14C5.83333 11.7063 6.6115 9.814 8.21567 8.21333C9.814 6.6115 11.7063 5.83333 14 5.83333C16.2692 5.83333 18.1557 6.61267 19.7692 8.21683C21.3827 9.8175 22.1667 11.7098 22.1667 14C22.1667 16.2645 21.3815 18.1522 19.7657 19.7668Z" fill="black"/>
</svg>
