<svg width="29" height="28" viewBox="0 0 29 28" fill="none" xmlns="http://www.w3.org/2000/svg">
    <path d="M22.027 6.56133C19.9853 4.53017 17.491 3.5 14.614 3.5C11.7101 3.5 9.20879 4.53133 7.17879 6.5625C5.14529 8.59367 4.11395 11.0973 4.11395 14C4.11395 16.8758 5.14412 19.3702 7.17529 21.413C9.20645 23.4617 11.709 24.5 14.614 24.5C17.4921 24.5 19.9865 23.4617 22.0293 21.4165C24.0768 19.3713 25.114 16.8758 25.114 14C25.114 11.0973 24.0756 8.59367 22.027 6.56133ZM20.3796 19.7668C19.0531 21.0957 17.5376 21.8528 15.7806 22.0827V16.3333H18.114V14H15.7806V12.3667C15.7806 12.2746 15.7988 12.1835 15.834 12.0985C15.8693 12.0135 15.9209 11.9363 15.9861 11.8713C16.0512 11.8063 16.1285 11.7547 16.2135 11.7196C16.2986 11.6845 16.3898 11.6665 16.4818 11.6667H18.114V9.33333H16.4841C15.6185 9.33333 14.8963 9.65183 14.3176 10.2923C13.739 10.9305 13.4473 11.7098 13.4473 12.635V14H11.114V16.3333H13.4473V22.085C11.6716 21.8575 10.1503 21.0992 8.83079 19.7703C7.22662 18.1557 6.44729 16.268 6.44729 14C6.44729 11.7063 7.22545 9.814 8.82962 8.21333C10.428 6.6115 12.3203 5.83333 14.614 5.83333C16.8831 5.83333 18.7696 6.61267 20.3831 8.21683C21.9966 9.8175 22.7806 11.7098 22.7806 14C22.7806 16.2645 21.9955 18.1522 20.3796 19.7668Z" fill="white"/>
</svg>