<svg width="27" height="25" viewBox="0 0 21 20" fill="none" xmlns="http://www.w3.org/2000/svg">
<path d="M17.2164 2.92634C15.8181 1.52864 14.0367 0.576964 12.0975 0.191667C10.1583 -0.19363 8.14841 0.00475412 6.32197 0.761732C4.49552 1.51871 2.93456 2.80029 1.83646 4.4444C0.738369 6.08851 0.152462 8.02132 0.152832 9.99842C0.152832 12.6501 1.20588 15.1933 3.08045 17.0688C4.95502 18.9443 7.49767 19.9987 10.1494 20C11.4616 20.0006 12.7612 19.7441 13.9748 19.245C15.1846 18.7343 16.285 17.9961 17.2164 17.0705C18.1452 16.1418 18.882 15.0393 19.3847 13.8259C19.8874 12.6124 20.1461 11.3119 20.1461 9.99842C20.1461 8.68498 19.8874 7.38441 19.3847 6.17097C18.882 4.95754 18.1452 3.85501 17.2164 2.92634ZM16.5117 16.3557C15.0722 17.8014 13.1833 18.7139 11.1561 18.943V12.339H13.0487C13.3157 12.339 13.5717 12.2329 13.7605 12.0441C13.9493 11.8554 14.0554 11.5993 14.0554 11.3323C14.0554 11.0653 13.9493 10.8092 13.7605 10.6205C13.5717 10.4317 13.3157 10.3256 13.0487 10.3256H11.1561V7.56724C11.1561 7.30024 11.2621 7.04419 11.4509 6.85539C11.6397 6.6666 11.8958 6.56054 12.1628 6.56054H13.3708C13.6378 6.56054 13.8939 6.45447 14.0827 6.26568C14.2715 6.07689 14.3775 5.82083 14.3775 5.55383C14.3775 5.28684 14.2715 5.03078 14.0827 4.84199C13.8939 4.6532 13.6378 4.54713 13.3708 4.54713H11.6594C10.9919 4.54713 10.3518 4.81229 9.87982 5.28427C9.40783 5.75626 9.14268 6.3964 9.14268 7.06389V10.3256H7.26014C6.99315 10.3256 6.73709 10.4317 6.5483 10.6205C6.35951 10.8092 6.25344 11.0653 6.25344 11.3323C6.25344 11.5993 6.35951 11.8554 6.5483 12.0441C6.73709 12.2329 6.99315 12.339 7.26014 12.339H9.14268V18.943C7.27312 18.7297 5.51782 17.9344 4.12472 16.6695C2.73162 15.4046 1.77112 13.734 1.37889 11.8936C0.98667 10.0533 1.18254 8.13621 1.93885 6.41321C2.69516 4.69021 3.97367 3.24837 5.5938 2.29134C7.21393 1.33431 9.09379 0.910461 10.9678 1.07967C12.8419 1.24888 14.6154 2.00259 16.0379 3.23434C17.4605 4.46609 18.46 6.11362 18.8955 7.94422C19.3309 9.77483 19.1803 11.696 18.4647 13.4363C18.009 14.5268 17.3457 15.5183 16.5117 16.3557Z" fill="white"/>
</svg>
