<svg width="15" height="14" viewBox="0 0 15 14" fill="none" xmlns="http://www.w3.org/2000/svg">
<path d="M7.80773 1.44721C9.7207 1.44721 9.94724 1.45398 10.7029 1.48656C11.1573 1.49182 11.6074 1.5707 12.0335 1.71979C12.3426 1.83248 12.6232 2.00511 12.8575 2.22656C13.0917 2.44802 13.2743 2.71339 13.3934 3.00559C13.5511 3.40853 13.6346 3.83406 13.6401 4.26366C13.6742 4.97817 13.6817 5.19237 13.6817 7.00108C13.6817 8.80979 13.6746 9.02398 13.6401 9.7385C13.6346 10.1681 13.5511 10.5936 13.3934 10.9966C13.2743 11.2888 13.0917 11.5541 12.8575 11.7756C12.6232 11.997 12.3426 12.1697 12.0335 12.2824C11.6074 12.4315 11.1573 12.5103 10.7029 12.5156C9.94758 12.5479 9.72104 12.5549 7.80773 12.5549C5.89443 12.5549 5.66789 12.5482 4.91253 12.5156C4.45816 12.5103 4.00811 12.4315 3.58194 12.2824C3.2729 12.1697 2.99223 11.997 2.75801 11.7756C2.52379 11.5541 2.34121 11.2888 2.22202 10.9966C2.06435 10.5936 1.98091 10.1681 1.97535 9.7385C1.94124 9.02398 1.93373 8.80979 1.93373 7.00108C1.93373 5.19237 1.94089 4.97817 1.97535 4.26366C1.98091 3.83406 2.06435 3.40853 2.22202 3.00559C2.34121 2.71339 2.52379 2.44802 2.75801 2.22656C2.99223 2.00511 3.2729 1.83248 3.58194 1.71979C4.00811 1.5707 4.45816 1.49182 4.91253 1.48656C5.66823 1.4543 5.89477 1.44721 7.80773 1.44721ZM7.80773 0.226562C5.86304 0.226562 5.61808 0.234304 4.85384 0.267208C4.25919 0.278391 3.67085 0.384847 3.11385 0.582046C2.63604 0.752261 2.20326 1.019 1.84571 1.36366C1.48085 1.70184 1.1985 2.11127 1.01836 2.56334C0.809792 3.08998 0.6972 3.64625 0.685372 4.2085C0.651255 4.93043 0.643066 5.16205 0.643066 7.00076C0.643066 8.83946 0.651255 9.07108 0.686054 9.79366C0.697882 10.3559 0.810474 10.9122 1.01904 11.4388C1.19898 11.8908 1.4811 12.3002 1.84571 12.6385C2.20345 12.9832 2.63648 13.25 3.11454 13.4201C3.67154 13.6173 4.25988 13.7238 4.85453 13.7349C5.61876 13.7672 5.8627 13.7756 7.80842 13.7756C9.75414 13.7756 9.99808 13.7679 10.7623 13.7349C11.357 13.7238 11.9453 13.6173 12.5023 13.4201C12.9781 13.2457 13.4102 12.9794 13.7709 12.6381C14.1316 12.2968 14.413 11.8882 14.5971 11.4382C14.8057 10.9115 14.9183 10.3553 14.9301 9.79301C14.9642 9.07108 14.9724 8.83946 14.9724 7.00076C14.9724 5.16205 14.9642 4.93043 14.9294 4.20785C14.9176 3.64561 14.805 3.08934 14.5964 2.56269C14.4165 2.11068 14.1344 1.70126 13.7698 1.36301C13.412 1.01828 12.979 0.751533 12.5009 0.581401C11.9439 0.384201 11.3556 0.277746 10.7609 0.266563C9.99739 0.234304 9.75243 0.226562 7.80773 0.226562Z" fill="#090914"/>
<path d="M7.80911 3.52344C7.08143 3.52344 6.37009 3.72746 5.76504 4.10971C5.16 4.49195 4.68842 5.03525 4.40995 5.6709C4.13148 6.30655 4.05862 7.00601 4.20058 7.68081C4.34254 8.35561 4.69296 8.97546 5.20751 9.46197C5.72205 9.94847 6.37763 10.2798 7.09133 10.414C7.80503 10.5482 8.5448 10.4794 9.21709 10.2161C9.88938 9.95276 10.464 9.50689 10.8683 8.93481C11.2726 8.36274 11.4883 7.69017 11.4883 7.00215C11.4883 6.07954 11.1007 5.19471 10.4107 4.54233C9.72073 3.88994 8.7849 3.52344 7.80911 3.52344ZM7.80911 9.26021C7.33677 9.26021 6.87503 9.12778 6.48229 8.87966C6.08955 8.63154 5.78344 8.27888 5.60268 7.86627C5.42192 7.45366 5.37463 6.99964 5.46678 6.56162C5.55893 6.1236 5.78638 5.72125 6.12038 5.40545C6.45438 5.08966 6.87992 4.8746 7.34319 4.78747C7.80646 4.70034 8.28665 4.74506 8.72304 4.91597C9.15943 5.08687 9.53242 5.3763 9.79485 5.74763C10.0573 6.11897 10.1973 6.55554 10.1973 7.00215C10.1973 7.60102 9.94572 8.17537 9.49784 8.59884C9.04996 9.02231 8.44251 9.26021 7.80911 9.26021Z" fill="#090914"/>
<path d="M11.6327 4.19807C12.1075 4.19807 12.4925 3.83412 12.4925 3.38517C12.4925 2.93621 12.1075 2.57227 11.6327 2.57227C11.1579 2.57227 10.7729 2.93621 10.7729 3.38517C10.7729 3.83412 11.1579 4.19807 11.6327 4.19807Z" fill="#090914"/>
</svg>
