<svg width="27" height="25" viewBox="0 0 31 28" fill="none" xmlns="http://www.w3.org/2000/svg">
    <path d="M29.7279 14C29.7279 21.4298 23.3492 27.5 15.4209 27.5C7.49264 27.5 1.11395 21.4298 1.11395 14C1.11395 6.57019 7.49264 0.5 15.4209 0.5C23.3492 0.5 29.7279 6.57019 29.7279 14Z" stroke="white"/>
    <path d="M15.4217 8.44721C17.3347 8.44721 17.5612 8.45398 18.3169 8.48656C18.7713 8.49182 19.2213 8.5707 19.6475 8.71979C19.9565 8.83248 20.2372 9.00511 20.4714 9.22656C20.7056 9.44802 20.8882 9.71339 21.0074 10.0056C21.1651 10.4085 21.2485 10.8341 21.2541 11.2637C21.2882 11.9782 21.2957 12.1924 21.2957 14.0011C21.2957 15.8098 21.2885 16.024 21.2541 16.7385C21.2485 17.1681 21.1651 17.5936 21.0074 17.9966C20.8882 18.2888 20.7056 18.5541 20.4714 18.7756C20.2372 18.997 19.9565 19.1697 19.6475 19.2824C19.2213 19.4315 18.7713 19.5103 18.3169 19.5156C17.5615 19.5479 17.335 19.5549 15.4217 19.5549C13.5084 19.5549 13.2818 19.5482 12.5265 19.5156C12.0721 19.5103 11.6221 19.4315 11.1959 19.2824C10.8868 19.1697 10.6062 18.997 10.372 18.7756C10.1377 18.5541 9.95516 18.2888 9.83598 17.9966C9.6783 17.5936 9.59487 17.1681 9.58931 16.7385C9.55519 16.024 9.54768 15.8098 9.54768 14.0011C9.54768 12.1924 9.55485 11.9782 9.58931 11.2637C9.59487 10.8341 9.6783 10.4085 9.83598 10.0056C9.95516 9.71339 10.1377 9.44802 10.372 9.22656C10.6062 9.00511 10.8868 8.83248 11.1959 8.71979C11.6221 8.5707 12.0721 8.49182 12.5265 8.48656C13.2822 8.4543 13.5087 8.44721 15.4217 8.44721ZM15.4217 7.22656C13.477 7.22656 13.232 7.2343 12.4678 7.26721C11.8731 7.27839 11.2848 7.38485 10.7278 7.58205C10.25 7.75226 9.81721 8.019 9.45966 8.36366C9.09481 8.70184 8.81245 9.11127 8.63231 9.56334C8.42374 10.09 8.31115 10.6463 8.29932 11.2085C8.26521 11.9304 8.25702 12.162 8.25702 14.0008C8.25702 15.8395 8.26521 16.0711 8.30001 16.7937C8.31183 17.3559 8.42443 17.9122 8.63299 18.4388C8.81293 18.8908 9.09505 19.3002 9.45966 19.6385C9.81741 19.9832 10.2504 20.25 10.7285 20.4201C11.2855 20.6173 11.8738 20.7238 12.4685 20.7349C13.2327 20.7672 13.4767 20.7756 15.4224 20.7756C17.3681 20.7756 17.612 20.7679 18.3763 20.7349C18.9709 20.7238 19.5592 20.6173 20.1163 20.4201C20.592 20.2457 21.0241 19.9794 21.3848 19.6381C21.7455 19.2968 22.0269 18.8882 22.2111 18.4382C22.4196 17.9115 22.5322 17.3553 22.544 16.793C22.5782 16.0711 22.5864 15.8395 22.5864 14.0008C22.5864 12.162 22.5782 11.9304 22.5434 11.2079C22.5315 10.6456 22.4189 10.0893 22.2104 9.56269C22.0304 9.11068 21.7483 8.70126 21.3837 8.36301C21.026 8.01828 20.5929 7.75153 20.1149 7.5814C19.5579 7.3842 18.9695 7.27775 18.3749 7.26656C17.6113 7.2343 17.3664 7.22656 15.4217 7.22656Z" fill="white"/>
    <path d="M15.4231 10.5234C14.6954 10.5234 13.9841 10.7275 13.379 11.1097C12.774 11.492 12.3024 12.0353 12.0239 12.6709C11.7455 13.3066 11.6726 14.006 11.8146 14.6808C11.9565 15.3556 12.3069 15.9755 12.8215 16.462C13.336 16.9485 13.9916 17.2798 14.7053 17.414C15.419 17.5482 16.1588 17.4794 16.8311 17.2161C17.5034 16.9528 18.078 16.5069 18.4823 15.9348C18.8865 15.3627 19.1023 14.6902 19.1023 14.0021C19.1023 13.0795 18.7147 12.1947 18.0247 11.5423C17.3347 10.8899 16.3989 10.5234 15.4231 10.5234ZM15.4231 16.2602C14.9507 16.2602 14.489 16.1278 14.0963 15.8797C13.7035 15.6315 13.3974 15.2789 13.2167 14.8663C13.0359 14.4537 12.9886 13.9996 13.0808 13.5616C13.1729 13.1236 13.4004 12.7213 13.7344 12.4055C14.0684 12.0897 14.4939 11.8746 14.9572 11.7875C15.4204 11.7003 15.9006 11.7451 16.337 11.916C16.7734 12.0869 17.1464 12.3763 17.4088 12.7476C17.6712 13.119 17.8113 13.5555 17.8113 14.0021C17.8113 14.601 17.5597 15.1754 17.1118 15.5988C16.6639 16.0223 16.0565 16.2602 15.4231 16.2602Z" fill="white"/>
    <path d="M19.2469 11.1981C19.7217 11.1981 20.1067 10.8341 20.1067 10.3852C20.1067 9.93621 19.7217 9.57227 19.2469 9.57227C18.7721 9.57227 18.3871 9.93621 18.3871 10.3852C18.3871 10.8341 18.7721 11.1981 19.2469 11.1981Z" fill="white"/>
</svg>