<svg width="28" height="28" viewBox="0 0 28 28" fill="none" xmlns="http://www.w3.org/2000/svg">
<path d="M11.7052 17.85H9.8385V11.7845H11.7052V17.85ZM10.7718 11.0063C10.0987 11.0063 9.7615 10.6948 9.7615 10.073C9.75941 9.94821 9.7844 9.82445 9.83476 9.71025C9.88511 9.59605 9.95962 9.49413 10.0532 9.4115C10.2477 9.23 10.5059 9.13235 10.7718 9.13967C11.445 9.13967 11.7822 9.45233 11.7822 10.0742C11.7822 10.696 11.4462 11.0063 10.7718 11.0063ZM18.6282 17.85H16.723V14.4667C16.723 13.5858 16.4103 13.1448 15.7885 13.1448C15.2962 13.1448 14.973 13.391 14.8155 13.8833C14.7653 13.9615 14.7385 14.1178 14.7385 14.35V17.85H12.8333V13.7282C12.8333 12.7948 12.8193 12.1473 12.7948 11.7845H14.4282L14.5448 12.6C14.973 11.9513 15.5948 11.6282 16.45 11.6282C17.0998 11.6282 17.6237 11.8545 18.025 12.3083C18.4287 12.7622 18.6293 13.4167 18.6293 14.273V17.85H18.6282ZM14 24.5C8.20983 24.5 3.5 19.7902 3.5 14C3.5 8.20983 8.20983 3.5 14 3.5C19.7902 3.5 24.5 8.20983 24.5 14C24.5 19.7902 19.7902 24.5 14 24.5ZM14 5.83333C9.49783 5.83333 5.83333 9.49783 5.83333 14C5.83333 18.5022 9.49783 22.1667 14 22.1667C18.5022 22.1667 22.1667 18.5022 22.1667 14C22.1667 9.49783 18.5022 5.83333 14 5.83333Z" fill="black"/>
</svg>
