<svg width="27" height="25" viewBox="0 0 21 20" fill="none" xmlns="http://www.w3.org/2000/svg">
<g clip-path="url(#clip0_658_185)">
<path d="M12.4957 7.47001C12.072 7.47001 11.7582 7.57688 11.5126 7.71188C11.4732 7.57188 11.3438 7.46938 11.1913 7.50001H9.32634C9.14196 7.46938 8.99259 7.61876 9.04946 7.81251V14.6875C8.99259 14.8625 9.14196 15.0125 9.32634 15H11.1913C11.3757 15.0125 11.5251 14.8625 11.5251 14.6781L11.5245 10.5231C11.5238 10.5213 11.517 10.3225 11.6426 10.1856C11.7432 10.0769 11.9163 10.0213 12.1557 10.0213C12.5545 10.0213 12.732 10.1844 12.7982 10.5494V14.6781C12.7326 14.8625 12.882 15.0125 13.0663 15H15.032C15.2163 15.0125 15.3657 14.8625 15.2995 14.6781V10.4106C15.3651 8.24063 13.8195 7.47001 12.4957 7.47001ZM14.6976 14.375H13.4001V10.5494C13.4001 9.81126 12.9232 9.35376 12.1563 9.35376C11.7226 9.35376 11.3851 9.48126 11.1526 9.73251C10.8295 10.0825 10.8545 10.5263 10.9238 10.625V14.375H9.66009V8.13751H10.8576V8.34751C10.8571 8.41007 10.8743 8.47149 10.9071 8.52473C10.94 8.57797 10.9872 8.62086 11.0433 8.64847C11.0995 8.67608 11.1623 8.6873 11.2245 8.68082C11.2867 8.67435 11.3458 8.65046 11.3951 8.61189L11.4826 8.54438C11.7357 8.34501 11.9976 8.13813 12.4963 8.13813C13.0126 8.13813 14.6982 8.30251 14.6982 10.4113L14.6976 14.375ZM7.17384 4.35376C6.47259 4.35376 5.90259 4.92376 5.90259 5.62501C5.90259 6.32626 6.47259 6.89626 7.17384 6.89626C7.87509 6.89626 8.44509 6.32626 8.44509 5.62501C8.44509 4.92376 7.87509 4.35376 7.17384 4.35376ZM7.17384 6.22876C6.84134 6.22876 6.57009 5.95751 6.57009 5.62501C6.57009 5.29251 6.84134 5.02126 7.17384 5.02126C7.50634 5.02126 7.77759 5.29251 7.77759 5.62501C7.77759 5.95751 7.50634 6.22876 7.17384 6.22876ZM8.06634 7.46938H6.21134C6.02696 7.46938 5.87759 7.61876 5.92384 7.81251V14.6875C5.87759 14.8625 6.02696 15.0125 6.21134 15H8.06634C8.25071 15.0125 8.40009 14.8625 8.40009 14.6781V7.80313C8.40009 7.71462 8.36493 7.62973 8.30234 7.56714C8.23974 7.50455 8.15485 7.46938 8.06634 7.46938ZM7.79884 14.375H6.54509V8.13751H7.79884V14.375Z" fill="white"/>
<path d="M10.2988 -0.0212402C4.77259 -0.0212402 0.277588 4.47376 0.277588 10C0.277588 15.5263 4.77259 20.0213 10.2988 20.0213C15.8251 20.0213 20.3201 15.5263 20.3201 10C20.3201 4.47376 15.8251 -0.0212402 10.2988 -0.0212402ZM10.2988 19.3538C5.14134 19.3538 0.945088 15.1575 0.945088 10C0.945088 4.84251 5.14134 0.64626 10.2988 0.64626C15.4563 0.64626 19.6526 4.84251 19.6526 10C19.6526 15.1575 15.4563 19.3538 10.2988 19.3538Z" fill="white"/>
</g>
<defs>
<clipPath id="clip0_658_185">
<rect width="20" height="20" fill="white" transform="translate(0.298828)"/>
</clipPath>
</defs>
</svg>
