<svg width="29" height="28" viewBox="0 0 29 28" fill="none" xmlns="http://www.w3.org/2000/svg">
    <path d="M11.9331 17.85H10.0664V11.7845H11.9331V17.85ZM10.9997 11.0063C10.3266 11.0063 9.9894 10.6948 9.9894 10.073C9.98732 9.94821 10.0123 9.82445 10.0627 9.71025C10.113 9.59605 10.1875 9.49413 10.2811 9.4115C10.4756 9.23 10.7338 9.13235 10.9997 9.13967C11.6729 9.13967 12.0101 9.45233 12.0101 10.0742C12.0101 10.696 11.6741 11.0063 10.9997 11.0063ZM18.8561 17.85H16.9509V14.4667C16.9509 13.5858 16.6382 13.1448 16.0164 13.1448C15.5241 13.1448 15.2009 13.391 15.0434 13.8833C14.9932 13.9615 14.9664 14.1178 14.9664 14.35V17.85H13.0612V13.7282C13.0612 12.7948 13.0472 12.1473 13.0227 11.7845H14.6561L14.7727 12.6C15.2009 11.9513 15.8227 11.6282 16.6779 11.6282C17.3277 11.6282 17.8516 11.8545 18.2529 12.3083C18.6566 12.7622 18.8572 13.4167 18.8572 14.273V17.85H18.8561ZM14.2279 24.5C8.43774 24.5 3.72791 19.7902 3.72791 14C3.72791 8.20983 8.43774 3.5 14.2279 3.5C20.0181 3.5 24.7279 8.20983 24.7279 14C24.7279 19.7902 20.0181 24.5 14.2279 24.5ZM14.2279 5.83333C9.72574 5.83333 6.06124 9.49783 6.06124 14C6.06124 18.5022 9.72574 22.1667 14.2279 22.1667C18.7301 22.1667 22.3946 18.5022 22.3946 14C22.3946 9.49783 18.7301 5.83333 14.2279 5.83333Z" fill="white"/>
</svg>