<svg width="24" height="24" viewBox="0 0 24 24" fill="none" xmlns="http://www.w3.org/2000/svg">
<path d="M15.5 6.16667C16.1188 6.16667 16.7123 6.4125 17.1499 6.85008C17.5875 7.28767 17.8333 7.88116 17.8333 8.5M15.5 1.5C17.3565 1.5 19.137 2.2375 20.4497 3.55025C21.7625 4.86301 22.5 6.64348 22.5 8.5M3.83333 2.66667H8.5L10.8333 8.5L7.91667 10.25C9.16612 12.7835 11.2165 14.8339 13.75 16.0833L15.5 13.1667L21.3333 15.5V20.1667C21.3333 20.7855 21.0875 21.379 20.6499 21.8166C20.2123 22.2542 19.6188 22.5 19 22.5C14.4491 22.2234 10.1568 20.2909 6.93297 17.067C3.70909 13.8432 1.77656 9.55086 1.5 5C1.5 4.38116 1.74583 3.78767 2.18342 3.35008C2.621 2.9125 3.21449 2.66667 3.83333 2.66667Z" stroke="white" stroke-width="2" stroke-linecap="round" stroke-linejoin="round"/>
</svg>
