<svg width="30" height="28" viewBox="0 0 30 28" fill="none" xmlns="http://www.w3.org/2000/svg">
    <path d="M29.114 14C29.114 21.4298 22.7353 27.5 14.807 27.5C6.87868 27.5 0.5 21.4298 0.5 14C0.5 6.57019 6.87868 0.5 14.807 0.5C22.7353 0.5 29.114 6.57019 29.114 14Z" stroke="white"/>
    <path d="M21.3719 10.9833C20.9287 11.1696 20.4609 11.286 19.9685 11.3558C20.4609 11.0765 20.8549 10.6342 21.0272 10.0987C20.5594 10.3548 20.0424 10.541 19.4761 10.6574C19.0329 10.2151 18.3928 9.93579 17.7034 9.93579C16.3739 9.93579 15.2906 10.9601 15.2906 12.2171C15.2906 12.4034 15.3152 12.5663 15.3644 12.7293C13.3701 12.6362 11.5728 11.7283 10.3664 10.3315C10.1694 10.6807 10.0463 11.0532 10.0463 11.4722C10.0463 12.2637 10.4649 12.9621 11.1296 13.3811C10.7357 13.3578 10.3664 13.2647 10.0217 13.1017V13.125C10.0217 14.2424 10.8588 15.1736 11.9667 15.3831C11.7698 15.4296 11.5482 15.4529 11.3266 15.4529C11.1789 15.4529 11.0065 15.4296 10.8588 15.4064C11.1789 16.3142 12.0652 16.9893 13.1239 16.9893C12.2868 17.5946 11.2527 17.9671 10.1202 17.9671C9.92321 17.9671 9.72624 17.9671 9.55389 17.9438C10.6372 18.5956 11.8929 18.9681 13.2716 18.9681C17.728 18.9681 20.1655 15.4762 20.1655 12.4499C20.1655 12.3568 20.1655 12.2404 20.1655 12.1473C20.6333 11.8447 21.0518 11.4489 21.3719 10.9833Z" fill="white"/>
</svg>