<svg width="28" height="28" viewBox="0 0 28 28" fill="none" xmlns="http://www.w3.org/2000/svg">
<path d="M14.0002 23.3334C16.4755 23.3334 18.8495 22.35 20.5998 20.5997C22.3502 18.8494 23.3335 16.4754 23.3335 14C23.3335 11.5247 22.3502 9.15072 20.5998 7.40038C18.8495 5.65004 16.4755 4.66671 14.0002 4.66671C11.5248 4.66671 9.15084 5.65004 7.4005 7.40038C5.65016 9.15072 4.66683 11.5247 4.66683 14C4.66683 16.4754 5.65016 18.8494 7.4005 20.5997C9.15084 22.35 11.5248 23.3334 14.0002 23.3334ZM14.0002 25.6667C7.55666 25.6667 2.3335 20.4435 2.3335 14C2.3335 7.55654 7.55666 2.33337 14.0002 2.33337C20.4437 2.33337 25.6668 7.55654 25.6668 14C25.6668 20.4435 20.4437 25.6667 14.0002 25.6667Z" fill="black"/>
<path d="M19.8337 10.4382C19.4043 10.6249 18.9435 10.7532 18.4593 10.8092C18.954 10.5176 19.332 10.0556 19.5117 9.50605C19.0403 9.78076 18.526 9.97403 17.9903 10.0777C17.765 9.84156 17.494 9.65376 17.1937 9.52579C16.8934 9.39782 16.5702 9.33235 16.2438 9.33339C14.922 9.33339 13.851 10.3892 13.851 11.6901C13.851 11.8744 13.872 12.0541 13.9128 12.2267C12.9647 12.1817 12.0364 11.9395 11.1871 11.5157C10.3378 11.0918 9.58616 10.4956 8.98016 9.76505C8.76732 10.1233 8.65525 10.5325 8.65583 10.9492C8.65583 11.7659 9.07933 12.4892 9.72099 12.9104C9.34118 12.8985 8.9695 12.7974 8.63599 12.6152V12.6444C8.6396 13.1921 8.83293 13.7216 9.18306 14.1428C9.5332 14.564 10.0185 14.8508 10.5563 14.9544C10.2032 15.0477 9.8338 15.0613 9.47483 14.9941C9.63131 15.4652 9.93061 15.876 10.3312 16.1693C10.7318 16.4626 11.2137 16.624 11.7102 16.6309C10.8584 17.2872 9.81274 17.6418 8.73749 17.6389C8.54499 17.6389 8.35483 17.6272 8.16699 17.6062C9.26421 18.3007 10.5364 18.6686 11.835 18.6667C16.238 18.6667 18.6448 15.0757 18.6448 11.9607L18.6367 11.6551C19.106 11.3252 19.5116 10.9129 19.8337 10.4382Z" fill="black"/>
</svg>
