<svg width="25" height="24" viewBox="0 0 25 24" fill="none" xmlns="http://www.w3.org/2000/svg">
<path d="M19.6636 4.91006C18.7468 3.98399 17.6548 3.24973 16.4512 2.75011C15.2477 2.25049 13.9567 1.99552 12.6536 2.00006C7.19357 2.00006 2.74357 6.45006 2.74357 11.9101C2.74357 13.6601 3.20357 15.3601 4.06357 16.8601L2.66357 22.0001L7.91357 20.6201C9.36357 21.4101 10.9936 21.8301 12.6536 21.8301C18.1136 21.8301 22.5636 17.3801 22.5636 11.9201C22.5636 9.27006 21.5336 6.78006 19.6636 4.91006ZM12.6536 20.1501C11.1736 20.1501 9.72357 19.7501 8.45357 19.0001L8.15357 18.8201L5.03357 19.6401L5.86357 16.6001L5.66357 16.2901C4.84132 14.977 4.40471 13.4593 4.40357 11.9101C4.40357 7.37006 8.10357 3.67006 12.6436 3.67006C14.8436 3.67006 16.9136 4.53006 18.4636 6.09006C19.2311 6.85402 19.8393 7.76272 20.253 8.76348C20.6667 9.76425 20.8776 10.8372 20.8736 11.9201C20.8936 16.4601 17.1936 20.1501 12.6536 20.1501ZM17.1736 13.9901C16.9236 13.8701 15.7036 13.2701 15.4836 13.1801C15.2536 13.1001 15.0936 13.0601 14.9236 13.3001C14.7536 13.5501 14.2836 14.1101 14.1436 14.2701C14.0036 14.4401 13.8536 14.4601 13.6036 14.3301C13.3536 14.2101 12.5536 13.9401 11.6136 13.1001C10.8736 12.4401 10.3836 11.6301 10.2336 11.3801C10.0936 11.1301 10.2136 11.0001 10.3436 10.8701C10.4536 10.7601 10.5936 10.5801 10.7136 10.4401C10.8336 10.3001 10.8836 10.1901 10.9636 10.0301C11.0436 9.86006 11.0036 9.72006 10.9436 9.60006C10.8836 9.48006 10.3836 8.26006 10.1836 7.76006C9.98357 7.28006 9.77357 7.34006 9.62357 7.33006H9.14357C8.97357 7.33006 8.71357 7.39006 8.48357 7.64006C8.26357 7.89006 7.62357 8.49006 7.62357 9.71006C7.62357 10.9301 8.51357 12.1101 8.63357 12.2701C8.75357 12.4401 10.3836 14.9401 12.8636 16.0101C13.4536 16.2701 13.9136 16.4201 14.2736 16.5301C14.8636 16.7201 15.4036 16.6901 15.8336 16.6301C16.3136 16.5601 17.3036 16.0301 17.5036 15.4501C17.7136 14.8701 17.7136 14.3801 17.6436 14.2701C17.5736 14.1601 17.4236 14.1101 17.1736 13.9901Z" fill="black"/>
</svg>
